# AST/ASF file generated using VICON BodyLanguage
# -----------------------------------------------
:version 1.10
:name VICON
:units
  mass 1.0
  length 0.45
  angle deg
:documentation
   .ast/.asf automatically generated from VICON data using
   VICON BodyBuilder and BodyLanguage model FoxedUp or BRILLIANT.MOD
:root
   order TX TY TZ RX RY RZ
   axis XYZ
   position 0 0 0  
   orientation 0 0 0 
:bonedata
  begin
     id 1 
     name lhipjoint
     direction 0.561001 -0.76473 0.316963 
     length 2.4722 
     axis 0 0 0  XYZ
  end
  begin
     id 2 
     name lfemur
     direction 0.34202 -0.939693 0  
     length 7.59403  
     axis 0 0 20  XYZ
    dof rx ry rz
    limits (-160.0 20.0)
           (-70.0 70.0)
           (-60.0 70.0)
  end
  begin
     id 3 
     name ltibia
     direction 0.34202 -0.939693 0   
     length 7.89655   
     axis 0 0 20   XYZ
    dof rx
    limits (-10.0 170.0)
  end
  begin
     id 4 
     name lfoot
     direction 0.061296 -0.168409 0.98381   
     length 2.73287   
     axis -90 7.62852e-016 20   XYZ
    dof rx rz
    limits (-45.0 90.0)
           (-70.0 20.0)
  end
  begin
     id 5 
     name ltoes
     direction 1.53547e-011 -4.21984e-011 1   
     length 1.37057   
     axis -90 7.62852e-016 20   XYZ
    dof rx
    limits (-90.0 20.0)
  end
  begin
     id 6 
     name rhipjoint
     direction -0.559611 -0.765599 0.317323   
     length 2.46939  
     axis 0 0 0  XYZ 
  end
  begin
     id 7 
     name rfemur
     direction -0.34202 -0.939693 0   
     length 7.53712   
     axis 0 0 -20   XYZ
    dof rx ry rz
    limits (-160.0 20.0)
           (-70.0 70.0)
           (-70.0 60.0)
  end
  begin
     id 8 
     name rtibia
     direction -0.34202 -0.939693 0   
     length 8.12549   
     axis 0 0 -20   XYZ
    dof rx
    limits (-10.0 170.0)
 end
 begin
     id 9 
     name rfoot
     direction -0.066984 -0.184037 0.980634   
     length 2.67541  
     axis -90 -7.62852e-016 -20   XYZ
    dof rx rz
    limits (-45.0 90.0)
           (-20.0 70.0)
  end
  begin
     id 10 
     name rtoes
     direction -1.53549e-011 -4.21786e-011 1   
     length 1.34085   
     axis -90 -7.62852e-016 -20   XYZ
    dof rx
    limits (-90.0 20.0)
  end
  begin
     id 11 
     name lowerback
     direction -0.0522728 0.992594 -0.109658   
     length 2.05633   
     axis 0 0 0   XYZ
    dof rx ry rz
    limits (-20.0 45.0)
           (-30.0 30.0)
           (-30.0 30.0)
  end
  begin
     id 12 
     name upperback
     direction 0.00589338 0.999977 0.00335704   
     length 2.05845   
     axis 0 0 0   XYZ
    dof rx ry rz
    limits (-20.0 45.0)
           (-30.0 30.0)
           (-30.0 30.0)
  end
  begin
     id 13 
     name thorax
     direction 0.0292928 0.998059 0.0549487   
     length 2.09281   
     axis 0 0 0   XYZ
    dof rx ry rz
    limits (-20.0 45.0)
           (-30.0 30.0)
           (-30.0 30.0)
  end
  begin
     id 14 
     name lowerneck
     direction 0.0356368 0.980775 0.191858   
     length 1.84767   
     axis 0 0 0   XYZ
    dof rx ry rz
    limits (-20.0 45.0)
           (-30.0 30.0)
           (-30.0 30.0)
  end
  begin
     id 15 
     name upperneck
     direction -0.0227605 0.98931 -0.14404   
     length 1.89582   
     axis 0 0 0   XYZ
    dof rx ry rz
    limits (-20.0 45.0)
           (-30.0 30.0)
           (-30.0 30.0)
  end
  begin
     id 16
     name head
     direction -0.00932985 0.997511 -0.0698904  
     length 1.90213  
     axis 0 0 0   XYZ
    dof rx ry rz
    limits (-20.0 45.0)
           (-30.0 30.0)
           (-30.0 30.0)
  end
  begin
     id 17 
     name lclavicle
     direction 0.873442 0.479511 0.0846686  
     length 3.41193  
     axis 0 0 0   XYZ
    dof ry rz
    limits (-20.0 10.0)
           (0.0 20.0)
  end
  begin
     id 18 
     name lhumerus
     direction 1 -4.4897e-011 -5.62117e-018   
     length 5.59864   
     axis 180 -30 -90   XYZ
    dof rx ry rz
    limits (-60.0 90.0)
           (-90.0 90.0)
           (-90.0 90.0)
  end
  begin
     id 19
     name lradius
     direction 1 -4.48966e-011 -6.26295e-027   
     length 3.59542   
     axis 180 -30 -90   XYZ
    dof rx
    limits (-10.0 170.0)
  end
  begin
     id 20
     name lwrist
     direction 1 -4.48947e-011 -1.74096e-026   
     length 1.79771   
     axis 1.04567e-014 90 90   XYZ
    dof ry
    limits (-180.0 0.0)
 end
  begin
     id 21 
     name lhand
     direction 1 -4.49085e-011 -3.48469e-026   
     length 0.572014   
     axis 2.22196e-014 90 90   XYZ
    dof rx rz
    limits (-90.0 90.0)
           (-45.0 45.0)
  end
  begin
     id 22 
     name lfingers
     direction 1 -4.48884e-011 -6.96135e-026   
     length 0.461173   
     axis 4.44383e-014 90 90   XYZ
    dof rx
    limits (0.0 90.0)
  end
  begin
     id 23
     name lthumb
     direction 0.707107 -6.34976e-011 0.707107   
     length 0.662154   
     axis -90 45 -5.4397e-014   XYZ
    dof rx rz
    limits (-45.0 45.0)
           (-45.0 45.0)
  end
  begin
     id 24 
     name rclavicle
     direction -0.890242 0.443271 0.104786   
     length 3.46753  
     axis 0 0 0   XYZ 
    dof ry rz
    limits (-10.0 20.0)
           (-20.0 0.0)
  end
  begin
     id 25 
     name rhumerus
     direction -1 -4.48963e-011 -5.41723e-018  
     length 5.8094   
     axis 180 30 90   XYZ
    dof rx ry rz
    limits (-90.0 60.0)
           (-90.0 90.0)
           (-90.0 90.0)
  end
  begin
     id 26 
     name rradius
     direction -1 -4.48958e-011 -6.51059e-027   
     length 3.66953   
     axis 180 30 90   XYZ
    dof rx
    limits (-10.0 170.0)
  end
  begin
     id 27 
     name rwrist
     direction -1 -4.48975e-011 -1.74124e-026   
     length 1.83476   
     axis 1.04567e-014 -90 -90   XYZ
    dof ry
    limits (-180.0 0.0)
  end
  begin
     id 28
     name rhand
     direction -1 -4.49013e-011 -3.48326e-026   
     length 0.57843   
     axis 2.22196e-014 -90 -90   XYZ
    dof rx rz
    limits (-90.0 90.0)
           (-45.0 45.0)
  end
  begin
     id 29
     name rfingers
     direction -1 -4.49023e-011 -6.9669e-026   
     length 0.466345   
     axis 4.44383e-014 -90 -90   XYZ
    dof rx
    limits (0.0 90.0)
  end
  begin
     id 30
     name rthumb
     direction -0.707107 -6.34926e-011 0.707107   
     length 0.669581   
     axis -90 -45 5.4397e-014   XYZ
    dof rx rz
    limits (-45.0 45.0)
           (-45.0 45.0)
  end
:hierarchy
  begin
    root lhipjoint rhipjoint lowerback
    lhipjoint lfemur
    lfemur ltibia
    ltibia lfoot
    lfoot ltoes
    rhipjoint rfemur
    rfemur rtibia
    rtibia rfoot
    rfoot rtoes
    lowerback upperback
    upperback thorax
    thorax lowerneck lclavicle rclavicle
    lowerneck upperneck
    upperneck head
    lclavicle lhumerus
    lhumerus lradius
    lradius lwrist
    lwrist lhand lthumb
    lhand lfingers
    rclavicle rhumerus
    rhumerus rradius
    rradius rwrist
    rwrist rhand rthumb
    rhand rfingers
  end

#!OML:ASF H:\SkateBoarding\Project 1\Capture day 1\Session 1\Skater.ASF
:FULLY-SPECIFIED
:DEGREES
221
root -5.01867 18.8526 43.9959 -182.882 71.9086 -185.062
lowerback 7.51767 -3.02029 -3.73397
upperback -0.73907 -4.37789 -0.413814
thorax -4.73423 -2.06937 2.15389
lowerneck -12.9313 -9.07299 -5.70411
upperneck 43.3028 -10.1847 0.423079
head 19.0651 -4.1828 -0.512537
rclavicle 7.23079e-015 -6.36111e-015
rhumerus -48.8316 -15.9257 -59.0938
rradius 26.4567
rwrist 2.2093
rhand -28.2393 -14.6505
rfingers 7.12502
rthumb -1.61699 -44.6242
lclavicle 7.23079e-015 -6.36111e-015
lhumerus -27.8546 -33.4486 94.1201
lradius 78.2632
lwrist 40.2956
lhand -25.1488 22.1968
lfingers 7.12502
lthumb 1.36789 52.1721
rfemur -14.6326 -0.980617 16.2759
rtibia 48.1528
rfoot -31.3723 21.6358
rtoes -5.74813
lfemur -2.61692 -1.17946 -10.0294
ltibia 39.3034
lfoot -40.8441 -2.2067
ltoes -21.0608
222
root -4.86928 18.8663 44.2737 -183.218 71.877 -185.401
lowerback 7.37441 -3.01212 -3.5693
upperback -0.760611 -4.35083 -0.509105
thorax -4.69699 -2.06221 1.95291
lowerneck -12.884 -9.03765 -5.57579
upperneck 43.3427 -10.0768 0.230597
head 19.0405 -4.1427 -0.600367
rclavicle -6.42323e-015 1.39149e-014
rhumerus -49.5167 -15.9361 -59.5881
rradius 26.7379
rwrist 1.84175
rhand -27.6257 -14.9804
rfingers 7.12502
rthumb -1.02441 -44.9576
lclavicle -6.42323e-015 1.39149e-014
lhumerus -28.0662 -33.1254 94.7578
lradius 78.1859
lwrist 40.2179
lhand -24.6425 22.2361
lfingers 7.12502
lthumb 1.85683 52.2077
rfemur -14.5746 -1.20486 16.3203
rtibia 47.87
rfoot -31.1031 21.797
rtoes -5.23946
lfemur -2.57716 -1.23383 -9.95987
ltibia 38.911
lfoot -40.6273 -2.21714
ltoes -20.919
223
root -4.71918 18.8823 44.5471 -183.96 71.8512 -186.154
lowerback 7.25204 -3.01909 -3.51702
upperback -0.78845 -4.35554 -0.619068
thorax -4.66925 -2.06743 1.80406
lowerneck -12.9096 -8.98174 -5.42924
upperneck 43.4219 -9.91248 -0.0253809
head 19.0518 -4.08365 -0.714961
rclavicle -4.63914e-014 8.74653e-015
rhumerus -50.1037 -16.056 -59.9383
rradius 26.9383
rwrist 1.79957
rhand -26.8286 -15.125
rfingers 7.12502
rthumb -0.254524 -45.1045
lclavicle -4.63914e-014 8.74653e-015
lhumerus -28.3993 -32.7241 95.4238
lradius 78.1494
lwrist 40.1389
lhand -24.7093 22.1261
lfingers 7.12502
lthumb 1.79232 52.0983
rfemur -14.5414 -1.40282 16.173
rtibia 47.6468
rfoot -30.7589 21.9272
rtoes -5.07942
lfemur -2.48912 -1.31761 -10.08
ltibia 38.4601
lfoot -40.4041 -2.07334
ltoes -20.8681
224
root -4.5744 18.9027 44.8128 -183.881 71.7492 -186.132
lowerback 7.08132 -3.05078 -3.17524
upperback -0.818831 -4.36393 -0.644017
thorax -4.63107 -2.08203 1.58019
lowerneck -12.8637 -8.94431 -5.3643
upperneck 43.4074 -9.77876 -0.229577
head 18.9985 -4.04864 -0.792169
rclavicle -1.69588e-014 -5.76476e-015
rhumerus -50.6069 -15.8635 -60.4807
rradius 27.3206
rwrist 1.2784
rhand -26.0528 -15.2525
rfingers 7.12502
rthumb 0.494743 -45.2317
lclavicle -1.69588e-014 -5.76476e-015
lhumerus -28.6274 -32.3599 96.0783
lradius 78.0646
lwrist 40.1747
lhand -24.7622 22.176
lfingers 7.12502
lthumb 1.74123 52.1487
rfemur -14.6327 -1.78018 16.2491
rtibia 47.4355
rfoot -30.3899 21.8437
rtoes -4.84795
lfemur -2.56546 -1.59949 -10.0044
ltibia 38.0318
lfoot -40.1725 -1.83163
ltoes -20.797
225
root -4.42227 18.9184 45.0874 -184.572 71.7867 -186.741
lowerback 7.01189 -3.02352 -3.28112
upperback -0.792266 -4.33249 -0.636845
thorax -4.5574 -2.06547 1.6377
lowerneck -12.8585 -8.91933 -5.32521
upperneck 43.4124 -9.63959 -0.472998
head 18.9687 -4.02021 -0.885568
rclavicle 1.78037e-014 6.55989e-015
rhumerus -50.9936 -15.7202 -60.8969
rradius 27.6193
rwrist 0.962668
rhand -25.4138 -15.3673
rfingers 7.12502
rthumb 1.11193 -45.3442
lclavicle 1.78037e-014 6.55989e-015
lhumerus -28.8895 -31.8645 96.8201
lradius 77.9215
lwrist 40.069
lhand -24.8349 22.0013
lfingers 7.12502
lthumb 1.67103 51.9745
rfemur -14.5443 -1.97184 16.1667
rtibia 47.2659
rfoot -30.016 21.8234
rtoes -5.08865
lfemur -2.34901 -1.73881 -10.1053
ltibia 37.5773
lfoot -39.893 -1.55734
ltoes -21.1402
226
root -4.27728 18.9387 45.3546 -184.461 71.8161 -186.62
lowerback 6.92366 -3.03236 -3.05448
upperback -0.810479 -4.32017 -0.562023
thorax -4.53775 -2.06533 1.58329
lowerneck -12.8155 -8.85235 -5.32615
upperneck 43.3637 -9.45319 -0.649244
head 18.9037 -3.97294 -0.927546
rclavicle 8.1775e-014 1.27222e-014
rhumerus -51.2801 -15.6732 -61.1826
rradius 27.8454
rwrist 0.792246
rhand -24.8942 -15.3955
rfingers 7.12502
rthumb 1.61373 -45.3691
lclavicle 8.1775e-014 1.27222e-014
lhumerus -29.1165 -31.506 97.5312
lradius 77.7528
lwrist 39.9577
lhand -25.0492 21.982
lfingers 7.12502
lthumb 1.46406 51.9567
rfemur -14.6165 -2.16506 16.2878
rtibia 47.0963
rfoot -29.6416 21.6932
rtoes -4.90333
lfemur -2.32143 -1.98756 -10.0135
ltibia 37.1696
lfoot -39.7815 -1.80667
ltoes -19.7857
227
root -4.13534 18.958 45.6108 -184.847 71.7511 -187.063
lowerback 6.78583 -3.07192 -2.90032
upperback -0.82989 -4.35536 -0.543976
thorax -4.48846 -2.08783 1.51202
lowerneck -12.7848 -8.79773 -5.31257
upperneck 43.3138 -9.2588 -0.900382
head 18.834 -3.93088 -1.00651
rclavicle 3.55328e-015 -3.18055e-015
rhumerus -51.4829 -15.3023 -61.6914
rradius 28.182
rwrist 0.237721
rhand -24.4169 -15.5121
rfingers 7.12502
rthumb 2.07476 -45.4818
lclavicle 3.55328e-015 -3.18055e-015
lhumerus -29.4245 -31.1295 98.317
lradius 77.6536
lwrist 40.2347
lhand -25.6134 21.7746
lfingers 7.12502
lthumb 0.919167 51.7524
rfemur -14.7231 -2.55707 16.1263
rtibia 46.942
rfoot -29.151 21.6163
rtoes -4.94279
lfemur -2.34708 -2.34741 -10.199
ltibia 36.751
lfoot -39.6621 -1.60861
ltoes -19.6031
228
root -3.99651 18.978 45.8676 -184.793 71.7574 -187.059
lowerback 6.69848 -3.10467 -2.60434
upperback -0.856999 -4.3712 -0.491499
thorax -4.48432 -2.10314 1.39923
lowerneck -12.7947 -8.75271 -5.27605
upperneck 43.2761 -9.09935 -1.12773
head 18.7854 -3.89502 -1.08754
rclavicle -2.76373e-014 -6.95746e-016
rhumerus -51.6162 -14.971 -62.1706
rradius 28.4812
rwrist -0.251681
rhand -24.0812 -15.6265
rfingers 7.12502
rthumb 2.39892 -45.5928
lclavicle -2.76373e-014 -6.95746e-016
lhumerus -29.7268 -30.7308 99.0748
lradius 77.4912
lwrist 40.3746
lhand -26.1915 21.6301
lfingers 7.12502
lthumb 0.360757 51.6095
rfemur -14.8718 -2.80975 16.1351
rtibia 46.7756
rfoot -28.6806 21.5332
rtoes -4.39172
lfemur -2.4039 -2.68527 -10.23
ltibia 36.3798
lfoot -39.5514 -1.34653
ltoes -19.5927
229
root -3.85589 18.9967 46.1244 -185.173 71.8119 -187.414
lowerback 6.68975 -3.13543 -2.52993
upperback -0.845025 -4.40265 -0.411276
thorax -4.4648 -2.12045 1.44276
lowerneck -12.834 -8.66088 -5.28784
upperneck 43.2064 -8.87353 -1.30904
head 18.7327 -3.83588 -1.12659
rclavicle 1.84047e-014 -5.2181e-015
rhumerus -51.5952 -14.5437 -62.6179
rradius 28.7352
rwrist -0.615751
rhand -23.712 -15.6389
rfingers 7.12502
rthumb 2.75549 -45.6009
lclavicle 1.84047e-014 -5.2181e-015
lhumerus -29.9322 -30.3219 99.7336
lradius 77.2986
lwrist 40.2035
lhand -26.5114 21.734
lfingers 7.12502
lthumb 0.0518206 51.7137
rfemur -14.9003 -3.01641 16.0095
rtibia 46.5958
rfoot -28.3568 21.3486
rtoes -4.25507
lfemur -2.32786 -2.97364 -10.3997
ltibia 36.0106
lfoot -39.4587 -1.01846
ltoes -19.6371
230
root -3.71963 19.0161 46.3827 -185.153 71.9308 -187.391
lowerback 6.67155 -3.08771 -2.28782
upperback -0.854287 -4.31574 -0.317241
thorax -4.47785 -2.08263 1.39625
lowerneck -12.7856 -8.65528 -5.32755
upperneck 43.1498 -8.76423 -1.50425
head 18.6695 -3.82766 -1.18559
rclavicle -2.47502e-014 3.59055e-015
rhumerus -51.6531 -14.2333 -62.958
rradius 29.0098
rwrist -1.05729
rhand -23.5285 -15.8409
rfingers 7.12502
rthumb 2.93274 -45.8005
lclavicle -2.47502e-014 3.59055e-015
lhumerus -30.2099 -30.0647 100.555
lradius 77.0281
lwrist 40.0464
lhand -26.422 21.8689
lfingers 7.12502
lthumb 0.138203 51.8486
rfemur -14.9937 -3.03183 16.0275
rtibia 46.3932
rfoot -28.0854 21.105
rtoes -4.04383
lfemur -2.31032 -3.17463 -10.4272
ltibia 35.6386
lfoot -39.335 -0.951319
ltoes -19.3079
